<svg width="24" height="24" viewBox="0 0 24 24" fill="none" xmlns="http://www.w3.org/2000/svg">
<path d="M12 21.75C13.9284 21.75 15.8134 21.1782 17.4168 20.1068C19.0202 19.0355 20.2699 17.5127 21.0078 15.7312C21.7458 13.9496 21.9389 11.9892 21.5627 10.0979C21.1864 8.20655 20.2579 6.46927 18.8943 5.10571C17.5307 3.74215 15.7934 2.81355 13.9021 2.43734C12.0108 2.06114 10.0504 2.25422 8.26883 2.99217C6.48725 3.73013 4.96451 4.97981 3.89317 6.58319C2.82182 8.18657 2.25 10.0716 2.25 12C2.25273 14.585 3.28083 17.0634 5.10872 18.8913C6.93661 20.7192 9.41497 21.7473 12 21.75ZM12 3.75C13.6317 3.75 15.2267 4.23385 16.5835 5.14037C17.9402 6.0469 18.9976 7.33537 19.622 8.84286C20.2464 10.3504 20.4098 12.0092 20.0915 13.6095C19.7731 15.2098 18.9874 16.6798 17.8336 17.8336C16.6798 18.9874 15.2098 19.7731 13.6095 20.0915C12.0091 20.4098 10.3503 20.2464 8.84286 19.622C7.33537 18.9976 6.04689 17.9402 5.14037 16.5835C4.23385 15.2267 3.75 13.6317 3.75 12C3.75248 9.81272 4.62247 7.71575 6.16911 6.16911C7.71574 4.62247 9.81272 3.75248 12 3.75ZM7.71937 12.5306C7.64964 12.461 7.59432 12.3783 7.55658 12.2872C7.51883 12.1962 7.49941 12.0986 7.49941 12C7.49941 11.9014 7.51883 11.8038 7.55658 11.7128C7.59432 11.6217 7.64964 11.539 7.71937 11.4694L10.7194 8.46937C10.8601 8.32864 11.051 8.24958 11.25 8.24958C11.449 8.24958 11.6399 8.32864 11.7806 8.46937C11.9214 8.6101 12.0004 8.80098 12.0004 9C12.0004 9.19902 11.9214 9.38989 11.7806 9.53062L10.0603 11.25L15.75 11.25C15.9489 11.25 16.1397 11.329 16.2803 11.4697C16.421 11.6103 16.5 11.8011 16.5 12C16.5 12.1989 16.421 12.3897 16.2803 12.5303C16.1397 12.671 15.9489 12.75 15.75 12.75L10.0603 12.75L11.7806 14.4694C11.9214 14.6101 12.0004 14.801 12.0004 15C12.0004 15.199 11.9214 15.3899 11.7806 15.5306C11.6399 15.6714 11.449 15.7504 11.25 15.7504C11.051 15.7504 10.8601 15.6714 10.7194 15.5306L7.71937 12.5306Z" fill="white"/>
</svg>
