<svg width="24" height="25" viewBox="0 0 24 25" fill="none" xmlns="http://www.w3.org/2000/svg">
<g clip-path="url(#clip0_761_886)">
<path d="M5.63606 6.13606C6.47179 5.30032 7.46395 4.63738 8.55588 4.18509C9.64782 3.73279 10.8182 3.5 12.0001 3.5C13.182 3.5 14.3523 3.73279 15.4442 4.18509C16.5362 4.63738 17.5283 5.30032 18.3641 6.13605C19.1998 6.97179 19.8627 7.96395 20.315 9.05588C20.7673 10.1478 21.0001 11.3182 21.0001 12.5001C21.0001 13.682 20.7673 14.8523 20.315 15.9442C19.8627 17.0362 19.1998 18.0283 18.3641 18.8641C16.6762 20.5519 14.387 21.5001 12.0001 21.5001C9.61309 21.5001 7.32389 20.5519 5.63606 18.8641C3.94822 17.1762 3 14.887 3 12.5001C3 10.1131 3.94822 7.82389 5.63606 6.13606Z" stroke="#203139" stroke-width="1.5" stroke-linecap="round" stroke-linejoin="round"/>
<path d="M15.236 11.5L20.5 15.5H14L12 21.5L10 15.5H3.5L8.776 11.5L6.72 5.21997L12 8.99997L17.28 5.21997L15.236 11.5Z" stroke="#203139" stroke-width="1.5" stroke-linecap="round" stroke-linejoin="round"/>
</g>
<defs>
<clipPath id="clip0_761_886">
<rect width="24" height="24" fill="white" transform="translate(0 0.5)"/>
</clipPath>
</defs>
</svg>
