<svg width="25" height="24" viewBox="0 0 25 24" fill="none" xmlns="http://www.w3.org/2000/svg">
<path d="M12.5 2.25C10.5716 2.25 8.68657 2.82183 7.08319 3.89317C5.47982 4.96451 4.23013 6.48726 3.49218 8.26884C2.75422 10.0504 2.56114 12.0108 2.93735 13.9021C3.31355 15.7934 4.24215 17.5307 5.60571 18.8943C6.96928 20.2579 8.70656 21.1865 10.5979 21.5627C12.4892 21.9389 14.4496 21.7458 16.2312 21.0078C18.0127 20.2699 19.5355 19.0202 20.6068 17.4168C21.6782 15.8134 22.25 13.9284 22.25 12C22.2473 9.41498 21.2192 6.93661 19.3913 5.10872C17.5634 3.28084 15.085 2.25273 12.5 2.25ZM12.5 20.25C10.8683 20.25 9.27326 19.7661 7.91655 18.8596C6.55984 17.9531 5.50242 16.6646 4.878 15.1571C4.25358 13.6496 4.0902 11.9908 4.40853 10.3905C4.72685 8.79016 5.51259 7.32015 6.66637 6.16637C7.82016 5.01259 9.29017 4.22685 10.8905 3.90852C12.4909 3.59019 14.1497 3.75357 15.6571 4.37799C17.1646 5.00242 18.4531 6.05984 19.3596 7.41655C20.2661 8.77325 20.75 10.3683 20.75 12C20.7475 14.1873 19.8775 16.2843 18.3309 17.8309C16.7843 19.3775 14.6873 20.2475 12.5 20.25ZM16.7806 11.4694C16.8504 11.539 16.9057 11.6217 16.9434 11.7128C16.9812 11.8038 17.0006 11.9014 17.0006 12C17.0006 12.0986 16.9812 12.1962 16.9434 12.2872C16.9057 12.3783 16.8504 12.461 16.7806 12.5306L13.7806 15.5306C13.6399 15.6714 13.449 15.7504 13.25 15.7504C13.051 15.7504 12.8601 15.6714 12.7194 15.5306C12.5786 15.3899 12.4996 15.199 12.4996 15C12.4996 14.801 12.5786 14.6101 12.7194 14.4694L14.4397 12.75H8.75C8.55109 12.75 8.36033 12.671 8.21967 12.5303C8.07902 12.3897 8 12.1989 8 12C8 11.8011 8.07902 11.6103 8.21967 11.4697C8.36033 11.329 8.55109 11.25 8.75 11.25H14.4397L12.7194 9.53063C12.5786 9.38989 12.4996 9.19902 12.4996 9C12.4996 8.80098 12.5786 8.61011 12.7194 8.46937C12.8601 8.32864 13.051 8.24958 13.25 8.24958C13.449 8.24958 13.6399 8.32864 13.7806 8.46937L16.7806 11.4694Z" fill="white"/>
</svg>
