<svg width="32" height="33" viewBox="0 0 32 33" fill="none" xmlns="http://www.w3.org/2000/svg">
<path d="M14.3045 23.7426C14.2558 23.9364 13.0371 28.5001 6.3333 28.5001C6.06808 28.5001 5.81373 28.3948 5.62619 28.2072C5.43866 28.0197 5.3333 27.7654 5.3333 27.5001C5.3333 20.7964 9.89705 19.5776 10.0908 19.5289C10.3482 19.4646 10.6207 19.5052 10.8482 19.6417C11.0757 19.7783 11.2396 19.9996 11.3039 20.257C11.3682 20.5144 11.3277 20.7869 11.1911 21.0144C11.0546 21.2419 10.8332 21.4058 10.5758 21.4701C10.4633 21.5014 7.7733 22.2876 7.3808 26.4526C11.5458 26.0601 12.3333 23.3751 12.3658 23.2501C12.4321 22.993 12.5978 22.7728 12.8265 22.6379C13.0552 22.503 13.3281 22.4645 13.5852 22.5308C13.8423 22.5971 14.0625 22.7628 14.1974 22.9915C14.3323 23.2201 14.3709 23.493 14.3045 23.7501V23.7426ZM25.9296 15.3176L25.3333 15.9139V23.2051C25.3348 23.4688 25.2838 23.7301 25.1834 23.9739C25.083 24.2177 24.9351 24.439 24.7483 24.6251L20.4583 28.9126C20.2733 29.099 20.0532 29.2468 19.8108 29.3476C19.5684 29.4485 19.3084 29.5003 19.0458 29.5001C18.8291 29.5001 18.6138 29.465 18.4083 29.3964C18.0554 29.2797 17.7422 29.0666 17.5041 28.7812C17.266 28.4958 17.1124 28.1495 17.0608 27.7814L16.3895 22.9701L10.8633 17.4439L6.05455 16.7726C5.68598 16.7209 5.33914 16.5674 5.05306 16.3294C4.76697 16.0913 4.55299 15.7781 4.43518 15.4251C4.31737 15.0721 4.30041 14.6932 4.3862 14.331C4.47199 13.9688 4.65713 13.6378 4.9208 13.3751L9.2083 9.08514C9.3944 8.89837 9.61577 8.75047 9.85955 8.65004C10.1033 8.54961 10.3646 8.49865 10.6283 8.50014H17.9195L18.5158 7.90389C21.8508 4.57014 25.8695 4.42639 27.442 4.52014C27.9296 4.54977 28.3895 4.75683 28.7349 5.10224C29.0804 5.44766 29.2874 5.90755 29.317 6.39514C29.4083 7.96389 29.2645 11.9826 25.9308 15.3176H25.9296ZM6.3333 14.7926L10.9771 15.4401L15.9195 10.5001H10.6283L6.3333 14.7926ZM12.7483 16.5001L17.3333 21.0851L24.5145 13.9039C25.4823 12.9426 26.2331 11.7854 26.7165 10.5098C27.1999 9.23433 27.4047 7.87011 27.317 6.50889C25.9565 6.42452 24.5937 6.63143 23.3195 7.11579C22.0454 7.60015 20.8892 8.35081 19.9283 9.31764L12.7483 16.5001ZM23.3333 17.9139L18.392 22.8551L19.042 27.5001L23.3333 23.2051V17.9139Z" fill="#233138"/>
</svg>
